<svg xmlns="http://www.w3.org/2000/svg" viewBox="0 0 449.69 449.69"><defs><style>.cls-1{fill:#231f20;}.cls-2{fill:#fff;fill-rule:evenodd;}</style></defs><g id="Capa_2" data-name="Capa 2"><g id="Layer_1" data-name="Layer 1"><circle class="cls-1" cx="224.85" cy="224.85" r="224.85" transform="translate(-93.13 224.85) rotate(-45)"/><path class="cls-2" d="M158.71,81.62H291c42.49,0,77.44,34.95,77.44,77.44V290.64c0,42.49-34.95,77.44-77.44,77.44H158.71c-42.48,0-77.44-34.95-77.44-77.44V159.06c0-42.49,35-77.44,77.44-77.44Zm143.23,50h0a16.67,16.67,0,0,1,16.45,16.44h0a16.68,16.68,0,0,1-16.45,16.45h0a16.23,16.23,0,0,1-16.44-16.45h0a16.22,16.22,0,0,1,16.44-16.44ZM224.5,146.72h.69c42.49,0,78.13,35.64,78.13,78.13h0c0,43.17-35.64,78.12-78.13,78.12h-.69c-42.48,0-77.44-35-77.44-78.12h0c0-42.49,35-78.13,77.44-78.13Zm0,26.73h.69c28.1,0,51.4,23.3,51.4,51.4h0c0,28.78-23.3,52.08-51.4,52.08h-.69c-28.09,0-51.39-23.3-51.39-52.08h0c0-28.1,23.3-51.4,51.39-51.4Zm-65.1-67.16H290.29a53.52,53.52,0,0,1,53.46,53.45V290a53.53,53.53,0,0,1-53.46,53.46H159.4A53.52,53.52,0,0,1,106,290V159.74a53.51,53.51,0,0,1,53.45-53.45Z"/></g></g></svg>