<svg xmlns="http://www.w3.org/2000/svg" viewBox="0 0 449.7 449.69"><defs><style>.cls-1{fill:#231f20;}.cls-2{fill:#fff;fill-rule:evenodd;}</style></defs><g id="Capa_2" data-name="Capa 2"><g id="Layer_1" data-name="Layer 1"><circle class="cls-1" cx="224.85" cy="224.85" r="224.85" transform="translate(-93.13 224.85) rotate(-45)"/><path class="cls-2" d="M227.33,184.88c-11.07-58.34,59.09-93.06,100.45-51,0,0,18.46-5.17,34.71-15.51a63.91,63.91,0,0,1-25.85,32.5s22.16-2.95,31.76-8.86c0,0-9.6,19.94-27.33,27.32C350.67,303.05,206.65,384.3,90,317.82c0,0,57.61,3,82-25.11,0,0-35.45,3-53.18-39.88,0,0,13.3,5.17,26.59-1.48,0,0-41.36-6.64-45-56.13,0,0,13.29,10.34,28.07,6.65,0,0-45.79-27.33-20-76.81,0,0,48.75,62,118.91,59.82Z"/></g></g></svg>